# xmcd
#
# Track frame offsets: 
#        150
#        22010
#        35891
#        56291
#        77393
#        94303
#        111123
#        129796
#        146066
#        171374
#        191623
#        210099
#
# Disc length: 2978 seconds
#
# Revision: 0
# Processed by: cddbd v1.5.2PL0 Copyright (c) Steve Scherf et al.
# Submitted via: ExactAudioCopy v1.3
#
DISCID=9c0ba00c
DTITLE=Justin Townes Earle - The Saint of Lost Causes
DYEAR=2019
DGENRE=Country
TTITLE0=The Saint of Lost Causes
TTITLE1=Ain't Got No Money
TTITLE2=Mornings in Memphis
TTITLE3=Don't Drink the Water
TTITLE4=Frightened by the Sound
TTITLE5=Flint City Shake It
TTITLE6=Over Alameda
TTITLE7=Pacific Northwestern Blues
TTITLE8=Appalachian Nightmare
TTITLE9=Say Baby
TTITLE10=Ahi Esta Mi Nina
TTITLE11=Talking to Myself
EXTD=
EXTT0=
EXTT1=
EXTT2=
EXTT3=
EXTT4=
EXTT5=
EXTT6=
EXTT7=
EXTT8=
EXTT9=
EXTT10=
EXTT11=
PLAYORDER=
